<?xml version="1.0" encoding="utf-8"?>
<!-- Generator: Adobe Illustrator 21.1.0, SVG Export Plug-In . SVG Version: 6.00 Build 0)  -->
<svg version="1.1" xmlns="http://www.w3.org/2000/svg" xmlns:xlink="http://www.w3.org/1999/xlink" x="0px" y="0px"
	 viewBox="0 0 500 500" style="enable-background:new 0 0 500 500;" xml:space="preserve">
<style type="text/css">
	.st0{fill:#652544;}
	.st1{fill:none;stroke:#F3F1F1;stroke-width:5;stroke-miterlimit:10;}
	.st2{fill:#FFE9E9;stroke:#682143;stroke-miterlimit:10;}
</style>
<g id="Layer_1">
	<g id="Layer_2">
		<circle class="st0" cx="250" cy="250" r="250"/>
	</g>
</g>
<g id="Layer_2_1_">
	<circle class="st1" cx="250" cy="250" r="247.8"/>
</g>
<g id="Layer_3">
	<path class="st2" d="M249.6,87C159.9,87,87,159.8,87,249.5c0,89.6,72.9,162.4,162.5,162.4c19.5,0,38.1-3.5,55.4-9.8l-5.3-11.3
		c-15.6,5.7-32.6,8.6-50.1,8.6c-82.9,0-150.1-67.3-150.1-150c0-82.9,67.2-150.1,150.1-150.1c82.7,0,150,67.3,150,150.1
		c0,17.5-3,34.3-8.5,50.1l11.2,5.3c6.3-17.3,9.8-36.1,9.8-55.4C412,159.8,339.1,87,249.6,87L249.6,87z M249.6,178.8
		c-39,0-70.8,31.6-70.8,70.8c0,39,31.8,70.6,70.8,70.6c5,0,10.1-0.6,14.9-1.6l-5.6-11.6c-3,0.6-6.1,0.9-9.3,0.9
		c-32.1,0-58.3-26.2-58.3-58.2c0-32.1,26.2-58.4,58.3-58.4s58.2,26.2,58.2,58.4c0,3.2-0.2,6.3-0.7,9.3l11.5,5.5
		c1.1-4.9,1.6-9.8,1.6-14.8C320.2,210.4,288.6,178.8,249.6,178.8L249.6,178.8z M255.9,249.6c-4.7,0.9-8,6.1-5.5,11.1l96.9,200.3
		c3.4,6.9,13.7,5.4,14.8-2.2l11.4-78.7c0.5-3.4,3.2-6.1,6.6-6.6l78.7-11.4c7.6-1.1,9.1-11.4,2.2-14.7l-200.3-96.9
		C259.2,249.5,257.4,249.3,255.9,249.6L255.9,249.6z"/>
</g>
</svg>
